<svg width="520" height="520" viewBox="0 0 520 520" fill="none" xmlns="http://www.w3.org/2000/svg">
<circle cx="260" cy="260" r="241" fill="url(#paint0_linear)"/>
<g filter="url(#filter0_d)">
<path d="M136.922 272.24L132.602 279.056L101.978 259.856V254.384L132.698 235.088L136.922 241.808L112.058 257.072L136.922 272.24ZM144.757 240.08C150.645 240.08 154.325 242.416 155.797 247.088C156.245 246.384 156.917 245.552 157.813 244.592C158.773 243.632 159.925 242.736 161.269 241.904C162.613 241.072 164.149 240.368 165.877 239.792C167.605 239.216 169.525 238.928 171.637 238.928C174.517 238.928 177.269 239.504 179.893 240.656C182.581 241.808 184.917 243.472 186.901 245.648C188.949 247.824 190.581 250.512 191.797 253.712C193.013 256.912 193.621 260.528 193.621 264.56C193.621 268.528 193.013 272.144 191.797 275.408C190.645 278.672 189.045 281.488 186.997 283.856C185.013 286.16 182.709 287.952 180.085 289.232C177.461 290.512 174.709 291.152 171.829 291.152C168.821 291.152 166.037 290.576 163.477 289.424C160.981 288.208 158.901 286.832 157.237 285.296V311.12H148.597V252.848C148.597 250.672 148.053 249.136 146.965 248.24C145.941 247.28 144.597 246.8 142.933 246.8L144.757 240.08ZM184.789 264.848C184.789 261.968 184.373 259.408 183.541 257.168C182.773 254.864 181.685 252.912 180.277 251.312C178.933 249.712 177.333 248.496 175.477 247.664C173.685 246.832 171.765 246.416 169.717 246.416C166.965 246.416 164.469 247.12 162.229 248.528C160.053 249.872 158.389 251.344 157.237 252.944V277.52C158.901 279.248 160.789 280.688 162.901 281.84C165.077 282.928 167.477 283.472 170.101 283.472C172.277 283.472 174.261 283.024 176.053 282.128C177.845 281.232 179.381 279.984 180.661 278.384C182.005 276.72 183.029 274.768 183.733 272.528C184.437 270.224 184.789 267.664 184.789 264.848ZM237.52 229.04C238.608 229.04 239.504 229.296 240.208 229.808C240.912 230.32 241.264 230.928 241.264 231.632C241.264 232.208 240.976 232.848 240.4 233.552C240.528 233.424 238.96 235.184 235.696 238.832C228.784 246.512 223.728 252.4 220.528 256.496C224.816 263.024 229.68 269.456 235.12 275.792C235.568 276.24 235.792 276.752 235.792 277.328C235.792 278.608 234.8 279.856 232.816 281.072C230.896 282.224 229.008 282.8 227.152 282.8C225.872 282.8 224.912 282.448 224.272 281.744C219.856 276.688 216.016 271.824 212.752 267.152C210.32 270.608 206.736 275.856 202 282.896C201.488 283.6 200.496 284.208 199.024 284.72C197.552 285.168 196.08 285.392 194.608 285.392C193.52 285.392 192.624 285.264 191.92 285.008C191.216 284.688 190.864 284.24 190.864 283.664C190.864 283.344 191.056 282.896 191.44 282.32C197.776 272.848 203.184 265.2 207.664 259.376C203.056 252.016 199.152 244.464 195.952 236.72C195.824 236.208 195.76 235.856 195.76 235.664C195.76 234.32 196.688 233.104 198.544 232.016C200.4 230.864 202.256 230.288 204.112 230.288C206.16 230.288 207.44 230.96 207.952 232.304C210.192 237.68 212.848 243.184 215.92 248.816C221.168 242.544 226.128 237.008 230.8 232.208C231.632 231.312 232.656 230.576 233.872 230C235.152 229.36 236.368 229.04 237.52 229.04ZM242.453 278.768C244.117 280.24 246.197 281.424 248.693 282.32C251.253 283.216 253.973 283.664 256.853 283.664C260.437 283.664 263.125 283.088 264.917 281.936C266.773 280.72 267.701 279.184 267.701 277.328C267.701 276.368 267.509 275.472 267.125 274.64C266.805 273.808 266.165 273.008 265.205 272.24C264.309 271.472 263.061 270.736 261.461 270.032C259.861 269.264 257.781 268.432 255.221 267.536C250.485 265.936 246.965 264.048 244.661 261.872C242.357 259.632 241.205 256.56 241.205 252.656C241.205 250.736 241.621 248.944 242.453 247.28C243.349 245.616 244.597 244.176 246.197 242.96C247.861 241.68 249.845 240.688 252.149 239.984C254.517 239.28 257.205 238.928 260.213 238.928C263.477 238.928 266.325 239.28 268.757 239.984C271.253 240.624 273.493 241.456 275.477 242.48L273.077 249.584C271.349 248.56 269.365 247.728 267.125 247.088C264.949 246.448 262.517 246.128 259.829 246.128C256.501 246.128 253.973 246.8 252.245 248.144C250.517 249.488 249.653 250.96 249.653 252.56C249.653 253.328 249.781 254.032 250.037 254.672C250.357 255.312 250.901 255.92 251.669 256.496C252.437 257.072 253.461 257.648 254.741 258.224C256.021 258.8 257.621 259.408 259.541 260.048C262.677 261.136 265.333 262.256 267.509 263.408C269.685 264.496 271.445 265.712 272.789 267.056C274.133 268.4 275.093 269.872 275.669 271.472C276.245 273.008 276.533 274.736 276.533 276.656C276.533 278.896 276.053 280.912 275.093 282.704C274.133 284.496 272.789 286.032 271.061 287.312C269.333 288.528 267.221 289.456 264.725 290.096C262.293 290.8 259.573 291.152 256.565 291.152C252.725 291.152 249.301 290.672 246.293 289.712C243.285 288.752 240.789 287.504 238.805 285.968L242.453 278.768ZM283.903 268.592C284.479 273.264 286.111 276.912 288.799 279.536C291.487 282.16 295.039 283.472 299.455 283.472C302.335 283.472 304.927 283.184 307.231 282.608C309.535 281.968 311.743 281.168 313.855 280.208L315.871 287.6C313.567 288.688 310.975 289.552 308.095 290.192C305.215 290.832 301.983 291.152 298.399 291.152C294.815 291.152 291.583 290.576 288.703 289.424C285.823 288.208 283.359 286.512 281.311 284.336C279.327 282.096 277.791 279.376 276.703 276.176C275.615 272.912 275.071 269.2 275.071 265.04C275.071 261.328 275.615 257.872 276.703 254.672C277.791 251.472 279.327 248.72 281.311 246.416C283.295 244.048 285.663 242.224 288.415 240.944C291.167 239.6 294.239 238.928 297.631 238.928C301.215 238.928 304.351 239.536 307.039 240.752C309.727 241.968 311.967 243.632 313.759 245.744C315.551 247.856 316.895 250.32 317.791 253.136C318.687 255.952 319.135 258.928 319.135 262.064C319.135 264.304 319.039 266.48 318.847 268.592H283.903ZM297.439 246.416C293.663 246.416 290.559 247.696 288.127 250.256C285.759 252.816 284.319 256.592 283.807 261.584H311.167C311.167 256.72 309.951 252.976 307.519 250.352C305.087 247.728 301.727 246.416 297.439 246.416ZM365.69 290.48C362.618 290.48 360.186 289.872 358.394 288.656C356.602 287.44 355.354 285.68 354.65 283.376C352.41 285.68 349.818 287.568 346.874 289.04C343.994 290.448 340.826 291.152 337.37 291.152C335.194 291.152 333.082 290.8 331.034 290.096C329.05 289.456 327.258 288.4 325.658 286.928C324.122 285.456 322.874 283.536 321.914 281.168C321.018 278.8 320.57 275.92 320.57 272.528V240.08H329.21V271.376C329.21 275.28 330.01 278.288 331.61 280.4C333.274 282.448 335.738 283.472 339.002 283.472C341.69 283.472 344.25 282.96 346.682 281.936C349.114 280.848 351.29 279.408 353.21 277.616V240.08H361.85V277.04C361.85 278.448 362.01 279.6 362.33 280.496C362.65 281.328 363.066 282 363.578 282.512C364.09 282.96 364.698 283.28 365.402 283.472C366.106 283.664 366.81 283.76 367.514 283.76L365.69 290.48ZM387.339 235.088L418.059 254.384V259.856L387.435 279.056L383.115 272.24L407.979 257.072L383.115 241.808L387.339 235.088Z" fill="white"/>
</g>
<defs>
<filter id="filter0_d" x="81.978" y="209.04" width="374.081" height="140.08" filterUnits="userSpaceOnUse" color-interpolation-filters="sRGB">
<feFlood flood-opacity="0" result="BackgroundImageFix"/>
<feColorMatrix in="SourceAlpha" type="matrix" values="0 0 0 0 0 0 0 0 0 0 0 0 0 0 0 0 0 0 127 0"/>
<feOffset dx="9" dy="9"/>
<feGaussianBlur stdDeviation="14.5"/>
<feColorMatrix type="matrix" values="0 0 0 0 0 0 0 0 0 0 0 0 0 0 0 0 0 0 0.74 0"/>
<feBlend mode="normal" in2="BackgroundImageFix" result="effect1_dropShadow"/>
<feBlend mode="normal" in="SourceGraphic" in2="effect1_dropShadow" result="shape"/>
</filter>
<linearGradient id="paint0_linear" x1="260" y1="19" x2="260" y2="501" gradientUnits="userSpaceOnUse">
<stop offset="0.0885417" stop-color="#FF0000"/>
<stop offset="0.526042" stop-color="#FF4DC2"/>
<stop offset="1" stop-color="#00C2FF"/>
</linearGradient>
</defs>
</svg>
