<svg width="220" height="98" viewBox="0 0 220 98" fill="none" xmlns="http://www.w3.org/2000/svg">
<path d="M33.0763 56.9L30.3763 61.16L11.2363 49.16V45.74L30.4363 33.68L33.0763 37.88L17.5363 47.42L33.0763 56.9ZM37.9728 36.8C41.6528 36.8 43.9528 38.26 44.8728 41.18C45.1528 40.74 45.5728 40.22 46.1328 39.62C46.7328 39.02 47.4528 38.46 48.2928 37.94C49.1328 37.42 50.0928 36.98 51.1728 36.62C52.2528 36.26 53.4528 36.08 54.7728 36.08C56.5728 36.08 58.2928 36.44 59.9328 37.16C61.6128 37.88 63.0728 38.92 64.3128 40.28C65.5928 41.64 66.6128 43.32 67.3728 45.32C68.1328 47.32 68.5128 49.58 68.5128 52.1C68.5128 54.58 68.1328 56.84 67.3728 58.88C66.6528 60.92 65.6528 62.68 64.3728 64.16C63.1328 65.6 61.6928 66.72 60.0528 67.52C58.4128 68.32 56.6928 68.72 54.8928 68.72C53.0128 68.72 51.2728 68.36 49.6728 67.64C48.1128 66.88 46.8128 66.02 45.7728 65.06V81.2H40.3728V44.78C40.3728 43.42 40.0328 42.46 39.3528 41.9C38.7128 41.3 37.8728 41 36.8328 41L37.9728 36.8ZM62.9928 52.28C62.9928 50.48 62.7328 48.88 62.2128 47.48C61.7328 46.04 61.0528 44.82 60.1728 43.82C59.3328 42.82 58.3328 42.06 57.1728 41.54C56.0528 41.02 54.8528 40.76 53.5728 40.76C51.8528 40.76 50.2928 41.2 48.8928 42.08C47.5328 42.92 46.4928 43.84 45.7728 44.84V60.2C46.8128 61.28 47.9928 62.18 49.3128 62.9C50.6728 63.58 52.1728 63.92 53.8128 63.92C55.1728 63.92 56.4128 63.64 57.5328 63.08C58.6528 62.52 59.6128 61.74 60.4128 60.74C61.2528 59.7 61.8928 58.48 62.3328 57.08C62.7728 55.64 62.9928 54.04 62.9928 52.28ZM95.9497 29.9C96.6297 29.9 97.1897 30.06 97.6297 30.38C98.0697 30.7 98.2897 31.08 98.2897 31.52C98.2897 31.88 98.1097 32.28 97.7497 32.72C97.8297 32.64 96.8497 33.74 94.8097 36.02C90.4897 40.82 87.3297 44.5 85.3297 47.06C88.0097 51.14 91.0497 55.16 94.4497 59.12C94.7297 59.4 94.8697 59.72 94.8697 60.08C94.8697 60.88 94.2497 61.66 93.0097 62.42C91.8097 63.14 90.6297 63.5 89.4697 63.5C88.6697 63.5 88.0697 63.28 87.6697 62.84C84.9097 59.68 82.5097 56.64 80.4697 53.72C78.9497 55.88 76.7097 59.16 73.7497 63.56C73.4297 64 72.8097 64.38 71.8897 64.7C70.9697 64.98 70.0497 65.12 69.1297 65.12C68.4497 65.12 67.8897 65.04 67.4497 64.88C67.0097 64.68 66.7897 64.4 66.7897 64.04C66.7897 63.84 66.9097 63.56 67.1497 63.2C71.1097 57.28 74.4897 52.5 77.2897 48.86C74.4097 44.26 71.9697 39.54 69.9697 34.7C69.8897 34.38 69.8497 34.16 69.8497 34.04C69.8497 33.2 70.4297 32.44 71.5897 31.76C72.7497 31.04 73.9097 30.68 75.0697 30.68C76.3497 30.68 77.1497 31.1 77.4697 31.94C78.8697 35.3 80.5297 38.74 82.4497 42.26C85.7297 38.34 88.8297 34.88 91.7497 31.88C92.2697 31.32 92.9097 30.86 93.6697 30.5C94.4697 30.1 95.2297 29.9 95.9497 29.9ZM99.0331 60.98C100.073 61.9 101.373 62.64 102.933 63.2C104.533 63.76 106.233 64.04 108.033 64.04C110.273 64.04 111.953 63.68 113.073 62.96C114.233 62.2 114.813 61.24 114.813 60.08C114.813 59.48 114.693 58.92 114.453 58.4C114.253 57.88 113.853 57.38 113.253 56.9C112.693 56.42 111.913 55.96 110.913 55.52C109.913 55.04 108.613 54.52 107.013 53.96C104.053 52.96 101.853 51.78 100.413 50.42C98.9731 49.02 98.2531 47.1 98.2531 44.66C98.2531 43.46 98.5131 42.34 99.0331 41.3C99.5931 40.26 100.373 39.36 101.373 38.6C102.413 37.8 103.653 37.18 105.093 36.74C106.573 36.3 108.253 36.08 110.133 36.08C112.173 36.08 113.953 36.3 115.473 36.74C117.033 37.14 118.433 37.66 119.673 38.3L118.173 42.74C117.093 42.1 115.853 41.58 114.453 41.18C113.093 40.78 111.573 40.58 109.893 40.58C107.813 40.58 106.233 41 105.153 41.84C104.073 42.68 103.533 43.6 103.533 44.6C103.533 45.08 103.613 45.52 103.773 45.92C103.973 46.32 104.313 46.7 104.793 47.06C105.273 47.42 105.913 47.78 106.713 48.14C107.513 48.5 108.513 48.88 109.713 49.28C111.673 49.96 113.333 50.66 114.693 51.38C116.053 52.06 117.153 52.82 117.993 53.66C118.833 54.5 119.433 55.42 119.793 56.42C120.153 57.38 120.333 58.46 120.333 59.66C120.333 61.06 120.033 62.32 119.433 63.44C118.833 64.56 117.993 65.52 116.913 66.32C115.833 67.08 114.513 67.66 112.953 68.06C111.433 68.5 109.733 68.72 107.853 68.72C105.453 68.72 103.313 68.42 101.433 67.82C99.5531 67.22 97.9931 66.44 96.7531 65.48L99.0331 60.98ZM124.94 54.62C125.3 57.54 126.32 59.82 128 61.46C129.68 63.1 131.9 63.92 134.66 63.92C136.46 63.92 138.08 63.74 139.52 63.38C140.96 62.98 142.34 62.48 143.66 61.88L144.92 66.5C143.48 67.18 141.86 67.72 140.06 68.12C138.26 68.52 136.24 68.72 134 68.72C131.76 68.72 129.74 68.36 127.94 67.64C126.14 66.88 124.6 65.82 123.32 64.46C122.08 63.06 121.12 61.36 120.44 59.36C119.76 57.32 119.42 55 119.42 52.4C119.42 50.08 119.76 47.92 120.44 45.92C121.12 43.92 122.08 42.2 123.32 40.76C124.56 39.28 126.04 38.14 127.76 37.34C129.48 36.5 131.4 36.08 133.52 36.08C135.76 36.08 137.72 36.46 139.4 37.22C141.08 37.98 142.48 39.02 143.6 40.34C144.72 41.66 145.56 43.2 146.12 44.96C146.68 46.72 146.96 48.58 146.96 50.54C146.96 51.94 146.9 53.3 146.78 54.62H124.94ZM133.4 40.76C131.04 40.76 129.1 41.56 127.58 43.16C126.1 44.76 125.2 47.12 124.88 50.24H141.98C141.98 47.2 141.22 44.86 139.7 43.22C138.18 41.58 136.08 40.76 133.4 40.76ZM176.056 68.3C174.136 68.3 172.616 67.92 171.496 67.16C170.376 66.4 169.596 65.3 169.156 63.86C167.756 65.3 166.136 66.48 164.296 67.4C162.496 68.28 160.516 68.72 158.356 68.72C156.996 68.72 155.676 68.5 154.396 68.06C153.156 67.66 152.036 67 151.036 66.08C150.076 65.16 149.296 63.96 148.696 62.48C148.136 61 147.856 59.2 147.856 57.08V36.8H153.256V56.36C153.256 58.8 153.756 60.68 154.756 62C155.796 63.28 157.336 63.92 159.376 63.92C161.056 63.92 162.656 63.6 164.176 62.96C165.696 62.28 167.056 61.38 168.256 60.26V36.8H173.656V59.9C173.656 60.78 173.756 61.5 173.956 62.06C174.156 62.58 174.416 63 174.736 63.32C175.056 63.6 175.436 63.8 175.876 63.92C176.316 64.04 176.756 64.1 177.196 64.1L176.056 68.3ZM189.587 33.68L208.787 45.74V49.16L189.647 61.16L186.947 56.9L202.487 47.42L186.947 37.88L189.587 33.68Z" fill="#2FBAFF"/>
</svg>
