<svg width="220" height="98" viewBox="0 0 220 98" fill="none" xmlns="http://www.w3.org/2000/svg">
<path d="M28.62 56.9L25.92 61.16L6.78 49.16V45.74L25.98 33.68L28.62 37.88L13.08 47.42L28.62 56.9ZM33.5166 36.8C37.1966 36.8 39.4966 38.26 40.4166 41.18C40.6966 40.74 41.1166 40.22 41.6766 39.62C42.2766 39.02 42.9966 38.46 43.8366 37.94C44.6766 37.42 45.6366 36.98 46.7166 36.62C47.7966 36.26 48.9966 36.08 50.3166 36.08C52.1166 36.08 53.8366 36.44 55.4766 37.16C57.1566 37.88 58.6166 38.92 59.8566 40.28C61.1366 41.64 62.1566 43.32 62.9166 45.32C63.6766 47.32 64.0566 49.58 64.0566 52.1C64.0566 54.58 63.6766 56.84 62.9166 58.88C62.1966 60.92 61.1966 62.68 59.9166 64.16C58.6766 65.6 57.2366 66.72 55.5966 67.52C53.9566 68.32 52.2366 68.72 50.4366 68.72C48.5566 68.72 46.8166 68.36 45.2166 67.64C43.6566 66.88 42.3566 66.02 41.3166 65.06V81.2H35.9166V44.78C35.9166 43.42 35.5766 42.46 34.8966 41.9C34.2566 41.3 33.4166 41 32.3766 41L33.5166 36.8ZM58.5366 52.28C58.5366 50.48 58.2766 48.88 57.7566 47.48C57.2766 46.04 56.5966 44.82 55.7166 43.82C54.8766 42.82 53.8766 42.06 52.7166 41.54C51.5966 41.02 50.3966 40.76 49.1166 40.76C47.3966 40.76 45.8366 41.2 44.4366 42.08C43.0766 42.92 42.0366 43.84 41.3166 44.84V60.2C42.3566 61.28 43.5366 62.18 44.8566 62.9C46.2166 63.58 47.7166 63.92 49.3566 63.92C50.7166 63.92 51.9566 63.64 53.0766 63.08C54.1966 62.52 55.1566 61.74 55.9566 60.74C56.7966 59.7 57.4366 58.48 57.8766 57.08C58.3166 55.64 58.5366 54.04 58.5366 52.28ZM91.4934 29.9C92.1734 29.9 92.7334 30.06 93.1734 30.38C93.6134 30.7 93.8334 31.08 93.8334 31.52C93.8334 31.88 93.6534 32.28 93.2934 32.72C93.3734 32.64 92.3934 33.74 90.3534 36.02C86.0334 40.82 82.8734 44.5 80.8734 47.06C83.5534 51.14 86.5934 55.16 89.9934 59.12C90.2734 59.4 90.4134 59.72 90.4134 60.08C90.4134 60.88 89.7934 61.66 88.5534 62.42C87.3534 63.14 86.1734 63.5 85.0134 63.5C84.2134 63.5 83.6134 63.28 83.2134 62.84C80.4534 59.68 78.0534 56.64 76.0134 53.72C74.4934 55.88 72.2534 59.16 69.2934 63.56C68.9734 64 68.3534 64.38 67.4334 64.7C66.5134 64.98 65.5934 65.12 64.6734 65.12C63.9934 65.12 63.4334 65.04 62.9934 64.88C62.5534 64.68 62.3334 64.4 62.3334 64.04C62.3334 63.84 62.4534 63.56 62.6934 63.2C66.6534 57.28 70.0334 52.5 72.8334 48.86C69.9534 44.26 67.5134 39.54 65.5134 34.7C65.4334 34.38 65.3934 34.16 65.3934 34.04C65.3934 33.2 65.9734 32.44 67.1334 31.76C68.2934 31.04 69.4534 30.68 70.6134 30.68C71.8934 30.68 72.6934 31.1 73.0134 31.94C74.4134 35.3 76.0734 38.74 77.9934 42.26C81.2734 38.34 84.3734 34.88 87.2934 31.88C87.8134 31.32 88.4534 30.86 89.2134 30.5C90.0134 30.1 90.7734 29.9 91.4934 29.9ZM94.5769 60.98C95.6169 61.9 96.9169 62.64 98.4769 63.2C100.077 63.76 101.777 64.04 103.577 64.04C105.817 64.04 107.497 63.68 108.617 62.96C109.777 62.2 110.357 61.24 110.357 60.08C110.357 59.48 110.237 58.92 109.997 58.4C109.797 57.88 109.397 57.38 108.797 56.9C108.237 56.42 107.457 55.96 106.457 55.52C105.457 55.04 104.157 54.52 102.557 53.96C99.5969 52.96 97.3969 51.78 95.9569 50.42C94.5169 49.02 93.7969 47.1 93.7969 44.66C93.7969 43.46 94.0569 42.34 94.5769 41.3C95.1369 40.26 95.9169 39.36 96.9169 38.6C97.9569 37.8 99.1969 37.18 100.637 36.74C102.117 36.3 103.797 36.08 105.677 36.08C107.717 36.08 109.497 36.3 111.017 36.74C112.577 37.14 113.977 37.66 115.217 38.3L113.717 42.74C112.637 42.1 111.397 41.58 109.997 41.18C108.637 40.78 107.117 40.58 105.437 40.58C103.357 40.58 101.777 41 100.697 41.84C99.6169 42.68 99.0769 43.6 99.0769 44.6C99.0769 45.08 99.1569 45.52 99.3169 45.92C99.5169 46.32 99.8569 46.7 100.337 47.06C100.817 47.42 101.457 47.78 102.257 48.14C103.057 48.5 104.057 48.88 105.257 49.28C107.217 49.96 108.877 50.66 110.237 51.38C111.597 52.06 112.697 52.82 113.537 53.66C114.377 54.5 114.977 55.42 115.337 56.42C115.697 57.38 115.877 58.46 115.877 59.66C115.877 61.06 115.577 62.32 114.977 63.44C114.377 64.56 113.537 65.52 112.457 66.32C111.377 67.08 110.057 67.66 108.497 68.06C106.977 68.5 105.277 68.72 103.397 68.72C100.997 68.72 98.8569 68.42 96.9769 67.82C95.0969 67.22 93.5369 66.44 92.2969 65.48L94.5769 60.98ZM120.483 54.62C120.843 57.54 121.863 59.82 123.543 61.46C125.223 63.1 127.443 63.92 130.203 63.92C132.003 63.92 133.623 63.74 135.063 63.38C136.503 62.98 137.883 62.48 139.203 61.88L140.463 66.5C139.023 67.18 137.403 67.72 135.603 68.12C133.803 68.52 131.783 68.72 129.543 68.72C127.303 68.72 125.283 68.36 123.483 67.64C121.683 66.88 120.143 65.82 118.863 64.46C117.623 63.06 116.663 61.36 115.983 59.36C115.303 57.32 114.963 55 114.963 52.4C114.963 50.08 115.303 47.92 115.983 45.92C116.663 43.92 117.623 42.2 118.863 40.76C120.103 39.28 121.583 38.14 123.303 37.34C125.023 36.5 126.943 36.08 129.063 36.08C131.303 36.08 133.263 36.46 134.943 37.22C136.623 37.98 138.023 39.02 139.143 40.34C140.263 41.66 141.103 43.2 141.663 44.96C142.223 46.72 142.503 48.58 142.503 50.54C142.503 51.94 142.443 53.3 142.323 54.62H120.483ZM128.943 40.76C126.583 40.76 124.643 41.56 123.123 43.16C121.643 44.76 120.743 47.12 120.423 50.24H137.523C137.523 47.2 136.763 44.86 135.243 43.22C133.723 41.58 131.623 40.76 128.943 40.76ZM171.6 68.3C169.68 68.3 168.16 67.92 167.04 67.16C165.92 66.4 165.14 65.3 164.7 63.86C163.3 65.3 161.68 66.48 159.84 67.4C158.04 68.28 156.06 68.72 153.9 68.72C152.54 68.72 151.22 68.5 149.94 68.06C148.7 67.66 147.58 67 146.58 66.08C145.62 65.16 144.84 63.96 144.24 62.48C143.68 61 143.4 59.2 143.4 57.08V36.8H148.8V56.36C148.8 58.8 149.3 60.68 150.3 62C151.34 63.28 152.88 63.92 154.92 63.92C156.6 63.92 158.2 63.6 159.72 62.96C161.24 62.28 162.6 61.38 163.8 60.26V36.8H169.2V59.9C169.2 60.78 169.3 61.5 169.5 62.06C169.7 62.58 169.96 63 170.28 63.32C170.6 63.6 170.98 63.8 171.42 63.92C171.86 64.04 172.3 64.1 172.74 64.1L171.6 68.3ZM185.131 33.68L204.331 45.74V49.16L185.191 61.16L182.491 56.9L198.031 47.42L182.491 37.88L185.131 33.68Z" fill="url(#paint0_linear)"/>
<defs>
<linearGradient id="paint0_linear" x1="-3.03785e-07" y1="49" x2="220" y2="49" gradientUnits="userSpaceOnUse">
<stop stop-color="#2B99FF"/>
<stop offset="0.46875" stop-color="#33E7FF"/>
<stop offset="1" stop-color="#6BFF37"/>
</linearGradient>
</defs>
</svg>
