<svg width="440" height="196" viewBox="0 0 440 196" fill="none" xmlns="http://www.w3.org/2000/svg">
<path d="M66.1525 113.8L60.7525 122.32L22.4725 98.32V91.48L60.8725 67.36L66.1525 75.76L35.0725 94.84L66.1525 113.8ZM75.9456 73.6C83.3056 73.6 87.9056 76.52 89.7456 82.36C90.3056 81.48 91.1456 80.44 92.2656 79.24C93.4656 78.04 94.9056 76.92 96.5856 75.88C98.2656 74.84 100.186 73.96 102.346 73.24C104.506 72.52 106.906 72.16 109.546 72.16C113.146 72.16 116.586 72.88 119.866 74.32C123.226 75.76 126.146 77.84 128.626 80.56C131.186 83.28 133.226 86.64 134.746 90.64C136.266 94.64 137.026 99.16 137.026 104.2C137.026 109.16 136.266 113.68 134.746 117.76C133.306 121.84 131.306 125.36 128.746 128.32C126.266 131.2 123.386 133.44 120.106 135.04C116.826 136.64 113.386 137.44 109.786 137.44C106.026 137.44 102.546 136.72 99.3456 135.28C96.2256 133.76 93.6256 132.04 91.5456 130.12V162.4H80.7456V89.56C80.7456 86.84 80.0656 84.92 78.7056 83.8C77.4256 82.6 75.7456 82 73.6656 82L75.9456 73.6ZM125.986 104.56C125.986 100.96 125.466 97.76 124.426 94.96C123.466 92.08 122.106 89.64 120.346 87.64C118.666 85.64 116.666 84.12 114.346 83.08C112.106 82.04 109.706 81.52 107.146 81.52C103.706 81.52 100.586 82.4 97.7856 84.16C95.0656 85.84 92.9856 87.68 91.5456 89.68V120.4C93.6256 122.56 95.9856 124.36 98.6256 125.8C101.346 127.16 104.346 127.84 107.626 127.84C110.346 127.84 112.826 127.28 115.066 126.16C117.306 125.04 119.226 123.48 120.826 121.48C122.506 119.4 123.786 116.96 124.666 114.16C125.546 111.28 125.986 108.08 125.986 104.56ZM191.899 59.8C193.259 59.8 194.379 60.12 195.259 60.76C196.139 61.4 196.579 62.16 196.579 63.04C196.579 63.76 196.219 64.56 195.499 65.44C195.659 65.28 193.699 67.48 189.619 72.04C180.979 81.64 174.659 89 170.659 94.12C176.019 102.28 182.099 110.32 188.899 118.24C189.459 118.8 189.739 119.44 189.739 120.16C189.739 121.76 188.499 123.32 186.019 124.84C183.619 126.28 181.259 127 178.939 127C177.339 127 176.139 126.56 175.339 125.68C169.819 119.36 165.019 113.28 160.939 107.44C157.899 111.76 153.419 118.32 147.499 127.12C146.859 128 145.619 128.76 143.779 129.4C141.939 129.96 140.099 130.24 138.259 130.24C136.899 130.24 135.779 130.08 134.899 129.76C134.019 129.36 133.579 128.8 133.579 128.08C133.579 127.68 133.819 127.12 134.299 126.4C142.219 114.56 148.979 105 154.579 97.72C148.819 88.52 143.939 79.08 139.939 69.4C139.779 68.76 139.699 68.32 139.699 68.08C139.699 66.4 140.859 64.88 143.179 63.52C145.499 62.08 147.819 61.36 150.139 61.36C152.699 61.36 154.299 62.2 154.939 63.88C157.739 70.6 161.059 77.48 164.899 84.52C171.459 76.68 177.659 69.76 183.499 63.76C184.539 62.64 185.819 61.72 187.339 61C188.939 60.2 190.459 59.8 191.899 59.8ZM198.066 121.96C200.146 123.8 202.746 125.28 205.866 126.4C209.066 127.52 212.466 128.08 216.066 128.08C220.546 128.08 223.906 127.36 226.146 125.92C228.466 124.4 229.626 122.48 229.626 120.16C229.626 118.96 229.386 117.84 228.906 116.8C228.506 115.76 227.706 114.76 226.506 113.8C225.386 112.84 223.826 111.92 221.826 111.04C219.826 110.08 217.226 109.04 214.026 107.92C208.106 105.92 203.706 103.56 200.826 100.84C197.946 98.04 196.506 94.2 196.506 89.32C196.506 86.92 197.026 84.68 198.066 82.6C199.186 80.52 200.746 78.72 202.746 77.2C204.826 75.6 207.306 74.36 210.186 73.48C213.146 72.6 216.506 72.16 220.266 72.16C224.346 72.16 227.906 72.6 230.946 73.48C234.066 74.28 236.866 75.32 239.346 76.6L236.346 85.48C234.186 84.2 231.706 83.16 228.906 82.36C226.186 81.56 223.146 81.16 219.786 81.16C215.626 81.16 212.466 82 210.306 83.68C208.146 85.36 207.066 87.2 207.066 89.2C207.066 90.16 207.226 91.04 207.546 91.84C207.946 92.64 208.626 93.4 209.586 94.12C210.546 94.84 211.826 95.56 213.426 96.28C215.026 97 217.026 97.76 219.426 98.56C223.346 99.92 226.666 101.32 229.386 102.76C232.106 104.12 234.306 105.64 235.986 107.32C237.666 109 238.866 110.84 239.586 112.84C240.306 114.76 240.666 116.92 240.666 119.32C240.666 122.12 240.066 124.64 238.866 126.88C237.666 129.12 235.986 131.04 233.826 132.64C231.666 134.16 229.026 135.32 225.906 136.12C222.866 137 219.466 137.44 215.706 137.44C210.906 137.44 206.626 136.84 202.866 135.64C199.106 134.44 195.986 132.88 193.506 130.96L198.066 121.96ZM249.879 109.24C250.599 115.08 252.639 119.64 255.999 122.92C259.359 126.2 263.799 127.84 269.319 127.84C272.919 127.84 276.159 127.48 279.039 126.76C281.919 125.96 284.679 124.96 287.319 123.76L289.839 133C286.959 134.36 283.719 135.44 280.119 136.24C276.519 137.04 272.479 137.44 267.999 137.44C263.519 137.44 259.479 136.72 255.879 135.28C252.279 133.76 249.199 131.64 246.639 128.92C244.159 126.12 242.239 122.72 240.879 118.72C239.519 114.64 238.839 110 238.839 104.8C238.839 100.16 239.519 95.84 240.879 91.84C242.239 87.84 244.159 84.4 246.639 81.52C249.119 78.56 252.079 76.28 255.519 74.68C258.959 73 262.799 72.16 267.039 72.16C271.519 72.16 275.439 72.92 278.799 74.44C282.159 75.96 284.959 78.04 287.199 80.68C289.439 83.32 291.119 86.4 292.239 89.92C293.359 93.44 293.919 97.16 293.919 101.08C293.919 103.88 293.799 106.6 293.559 109.24H249.879ZM266.799 81.52C262.079 81.52 258.199 83.12 255.159 86.32C252.199 89.52 250.399 94.24 249.759 100.48H283.959C283.959 94.4 282.439 89.72 279.399 86.44C276.359 83.16 272.159 81.52 266.799 81.52ZM352.112 136.6C348.272 136.6 345.232 135.84 342.992 134.32C340.752 132.8 339.192 130.6 338.312 127.72C335.512 130.6 332.272 132.96 328.592 134.8C324.992 136.56 321.032 137.44 316.712 137.44C313.992 137.44 311.352 137 308.792 136.12C306.312 135.32 304.072 134 302.072 132.16C300.152 130.32 298.592 127.92 297.392 124.96C296.272 122 295.712 118.4 295.712 114.16V73.6H306.512V112.72C306.512 117.6 307.512 121.36 309.512 124C311.592 126.56 314.672 127.84 318.752 127.84C322.112 127.84 325.312 127.2 328.352 125.92C331.392 124.56 334.112 122.76 336.512 120.52V73.6H347.312V119.8C347.312 121.56 347.512 123 347.912 124.12C348.312 125.16 348.832 126 349.472 126.64C350.112 127.2 350.872 127.6 351.753 127.84C352.632 128.08 353.512 128.2 354.392 128.2L352.112 136.6ZM379.174 67.36L417.574 91.48V98.32L379.294 122.32L373.894 113.8L404.974 94.84L373.894 75.76L379.174 67.36Z" fill="url(#paint0_linear)"/>
<defs>
<linearGradient id="paint0_linear" x1="-6.0757e-07" y1="97" x2="440" y2="97" gradientUnits="userSpaceOnUse">
<stop stop-color="#FF2B2B"/>
<stop offset="1" stop-color="#E337FF"/>
</linearGradient>
</defs>
</svg>
