<?xml version="1.0" standalone="no"?>
<!DOCTYPE svg PUBLIC "-//W3C//DTD SVG 20010904//EN"
 "http://www.w3.org/TR/2001/REC-SVG-20010904/DTD/svg10.dtd">
<svg version="1.0" xmlns="http://www.w3.org/2000/svg"
 width="220.000000pt" height="220.000000pt" viewBox="0 0 220.000000 220.000000"
 preserveAspectRatio="xMidYMid meet">
<metadata>
Created by potrace 1.11, written by Peter Selinger 2001-2013
</metadata>
<g transform="translate(0.000000,220.000000) scale(0.100000,-0.100000)"
fill="#000000" stroke="none">
<path d="M684 1280 c-35 -13 -34 -33 6 -108 l37 -71 -53 -73 c-29 -40 -50 -76
-48 -80 3 -4 16 -8 29 -8 22 0 49 25 87 80 l16 25 45 -48 45 -48 32 16 c28 14
30 18 18 34 -7 10 -30 40 -50 67 -21 27 -38 51 -38 54 0 3 12 19 28 35 81 90
102 117 97 125 -14 23 -47 6 -101 -50 l-57 -60 -26 55 c-27 60 -36 66 -67 55z"/>
<path d="M162 1193 c-67 -42 -92 -63 -92 -78 0 -28 188 -144 201 -124 16 26 9
34 -61 78 -38 23 -70 44 -70 47 0 6 110 74 120 74 5 0 12 5 15 10 7 12 -3 50
-13 50 -4 0 -49 -26 -100 -57z"/>
<path d="M1842 1238 c-21 -21 -13 -32 63 -77 l74 -45 -74 -45 c-76 -46 -86
-60 -62 -80 20 -16 207 103 200 127 -2 10 -43 42 -91 72 -105 67 -95 63 -110
48z"/>
<path d="M460 1223 c-8 -3 -23 -12 -32 -20 -15 -13 -19 -13 -40 1 -12 9 -30
16 -39 16 -24 0 -30 -35 -9 -48 16 -10 18 -31 18 -198 1 -192 4 -207 41 -197
14 3 16 17 15 79 0 41 1 74 3 74 2 0 17 -6 32 -14 63 -33 146 3 175 74 32 80
13 170 -45 213 -27 19 -93 31 -119 20z m89 -67 c89 -94 -10 -263 -109 -186
-23 17 -25 26 -25 98 -1 75 1 81 25 96 38 23 83 20 109 -8z"/>
<path d="M979 1207 c-25 -17 -35 -31 -37 -56 -5 -48 19 -76 88 -103 46 -17 62
-29 67 -47 11 -46 -60 -68 -119 -37 -26 14 -29 13 -43 -7 -14 -20 -13 -22 12
-36 65 -34 179 -14 202 35 l11 25 25 -29 c31 -37 67 -50 126 -47 68 3 91 13
87 38 -2 16 -9 21 -23 19 -86 -15 -101 -14 -133 13 -32 27 -43 64 -19 66 6 1
54 1 105 1 79 0 92 2 92 16 0 13 2 14 9 4 4 -8 7 -27 5 -44 -11 -93 102 -149
184 -89 24 17 26 17 44 -1 10 -10 26 -18 37 -18 25 0 33 34 11 48 -15 9 -18
27 -17 133 0 116 -1 123 -21 130 -13 5 -24 4 -28 -3 -4 -6 -7 -62 -7 -124 l0
-112 -38 -17 c-43 -20 -83 -14 -98 14 -6 10 -11 70 -12 133 l-1 114 -27 -4
c-27 -4 -28 -6 -27 -58 1 -30 -2 -54 -6 -54 -5 0 -8 7 -8 16 0 28 -33 73 -66
89 -96 46 -202 -26 -204 -138 0 -37 0 -37 -20 -20 -10 11 -42 27 -69 37 -59
21 -79 41 -65 63 16 26 46 31 97 18 26 -6 47 -8 47 -4 0 4 3 14 6 22 3 10 -5
18 -27 26 -51 18 -103 13 -140 -12z m370 -48 c10 -11 21 -31 24 -45 5 -26 5
-26 -118 -26 -19 0 -39 1 -44 1 -16 2 9 60 32 76 31 22 83 19 106 -6z"/>
</g>
</svg>
