<?xml version="1.0" standalone="no"?>
<!DOCTYPE svg PUBLIC "-//W3C//DTD SVG 20010904//EN"
 "http://www.w3.org/TR/2001/REC-SVG-20010904/DTD/svg10.dtd">
<svg version="1.0" xmlns="http://www.w3.org/2000/svg"
 width="550.000000pt" height="550.000000pt" viewBox="0 0 550.000000 550.000000"
 preserveAspectRatio="xMidYMid meet">
<metadata>
Created by potrace 1.14, written by Peter Selinger 2001-2017
</metadata>
<g transform="translate(0.000000,550.000000) scale(0.100000,-0.100000)"
fill="#000000" stroke="none">
<path d="M0 2750 l0 -2750 2750 0 2750 0 0 2750 0 2750 -2750 0 -2750 0 0
-2750z m2450 320 c15 -15 18 -25 11 -38 -6 -9 -75 -91 -155 -182 -80 -91 -146
-170 -146 -176 0 -14 95 -147 167 -234 64 -77 66 -100 16 -135 -37 -25 -104
-34 -129 -17 -12 8 -140 165 -164 200 -15 22 -17 19 -99 -102 -46 -69 -94
-129 -108 -135 -34 -16 -118 -14 -132 3 -9 10 10 43 84 150 52 76 108 155 125
176 16 21 30 43 30 49 0 6 -12 30 -26 52 -45 72 -144 281 -144 305 0 47 111
100 158 75 11 -6 47 -68 83 -142 54 -111 65 -128 75 -114 7 9 59 69 116 132
129 145 191 180 238 133z m-1046 -54 c152 -74 230 -279 181 -471 -48 -182
-188 -297 -345 -282 -53 4 -151 44 -165 67 -20 32 -25 -6 -25 -180 l0 -190
-65 0 -65 0 0 450 c0 321 -3 456 -12 475 -6 15 -23 28 -40 33 -34 8 -34 8 -19
67 10 39 15 45 38 45 39 0 108 -36 123 -65 16 -30 22 -31 45 -5 79 88 234 112
349 56z m1599 4 c31 -12 57 -27 57 -34 0 -17 -21 -79 -29 -88 -4 -5 -32 1 -64
12 -61 22 -177 27 -221 10 -65 -24 -86 -88 -42 -129 13 -12 70 -40 127 -61
184 -71 241 -126 247 -239 3 -79 -20 -129 -83 -173 -111 -77 -338 -74 -461 7
l-24 16 26 52 c15 28 28 53 29 55 1 2 19 -8 39 -22 49 -33 128 -50 209 -44 88
5 121 28 125 87 4 59 -31 90 -169 142 -118 46 -182 91 -205 146 -18 42 -18
127 0 161 29 55 96 102 173 122 60 15 200 5 266 -20z m702 -1 c61 -29 115 -82
143 -141 27 -54 48 -189 38 -240 l-7 -38 -259 0 c-299 0 -282 7 -229 -98 24
-49 41 -68 77 -90 42 -24 56 -27 137 -26 68 0 104 6 145 22 30 12 56 22 56 22
1 0 7 -20 13 -44 6 -24 13 -50 17 -59 8 -23 -109 -57 -221 -64 -237 -15 -378
114 -392 357 -13 209 91 376 262 421 53 14 167 3 220 -22z m495 -262 c0 -245
2 -276 18 -307 45 -85 167 -92 285 -18 l47 30 0 284 0 284 70 0 70 0 0 -303
c0 -330 3 -347 56 -347 24 0 25 -3 19 -32 -14 -64 -23 -78 -50 -78 -54 0 -122
46 -138 93 -2 7 -17 0 -39 -19 -66 -58 -123 -79 -218 -79 -98 0 -145 19 -198
79 -55 63 -62 108 -62 413 l0 273 70 0 70 0 0 -273z"/>
<path d="M1150 2909 c-25 -11 -57 -32 -72 -46 l-28 -27 0 -181 0 -181 28 -26
c96 -90 237 -88 317 5 113 132 73 393 -70 458 -53 24 -119 23 -175 -2z"/>
<path d="M3480 2915 c-52 -24 -78 -52 -100 -112 -37 -99 -49 -93 181 -93 l202
0 -7 46 c-8 61 -42 120 -84 146 -45 27 -144 34 -192 13z"/>
</g>
</svg>
