<svg version="1" xmlns="http://www.w3.org/2000/svg" width="682.667" height="682.667" viewBox="0 0 512.000000 512.000000"><path d="M0 200v200l2.8-.6c1.5-.4 3.7-1.3 4.9-2 1.2-.8 3.1-1.4 4.1-1.4 1.3 0 2.4-1.3 3.6-4.3.9-2.3 1.6-4.7 1.6-5.3 0-.6.9-1.9 2-2.9s2-2.3 2-2.9c0-.6 1.4-2 3-3.1s3-2.6 3-3.3c0-.6.7-1.2 1.5-1.2s1.5-.7 1.5-1.5c0-.9.7-1.8 1.5-2.1.8-.4 1.5-1 1.5-1.4 0-1.4 7.3-8.4 11-10.5 3-1.7 5.3-2 17-2 7.4 0 14.6.3 16 .7 4.3 1.2 12 9.7 13.7 15 .3 1 .9 1.8 1.3 1.8s1.1 1 1.5 2.3c.6 2.1.7 2.1 1.5-.8.5-1.7 1.3-8.1 1.9-14.3.5-6.2 1.4-11.8 1.9-12.5.5-.7 1.2-3 1.5-5.2.4-2.2 1.5-7.8 2.6-12.5s2.9-12.8 4.1-18c1.2-5.2 2.6-11.3 3.1-13.5 1.6-6.5 4.9-23.5 5.9-30.5.5-3.6 1.4-8.3 1.9-10.5.6-2.2 1.7-7.8 2.6-12.5 3.3-16.7 5.6-23.5 9.7-28.4 5.1-5.9 11.1-8.6 19.3-8.6 8.3 0 13.9 2.6 19 8.7l4 4.8V233c0 12-1.6 30.7-4.1 47.2-.8 5.3-1.4 11.7-1.4 14.2s-.4 6.7-.9 9.3c-1.2 6.1-1.2 5.3-5.1 58.1-.5 7.4-1.7 16.6-2.6 20.5-4.8 22-6.4 31.7-5.2 31.7.8 0 3.6-2.7 8.8-8.6 3.3-3.7 9.9-9.4 11-9.4.4 0 2.1-.7 3.6-1.5 1.6-.8 4-1.5 5.3-1.5 2.7 0 13.3 3.1 14.1 4.1.3.3 2.3 1.2 4.5 1.9 5.5 1.7 10.5 4.9 10.5 6.6 0 .8.4 1.4.9 1.4s1.5 1.7 2.1 3.7c.7 2.1 1.9 4.5 2.7 5.4.8.9 1.5 3.5 1.6 5.8.1 4 .3 4.2 2.7 3.5 6-1.5 15.3-.4 22.2 2.8 3.7 1.8 7 4 7.4 5 .3 1 1 1.8 1.5 1.8s.9.5.9 1.2c0 1 1.5 4.6 7.2 16.6 1.8 3.9 2 6.1 1.9 23.4-.1 15.6-.4 19.6-1.8 21.8-1.2 2-1.4 3.7-.8 6.6.5 2.2.7 4.7.6 5.6-.2 1.7 6.4 1.8 125.8 1.8H512V258.9c0-139.1-.4-252.8-.9-252.5-.4.3-1.1 3.9-1.4 8.1-.4 4.2-1.2 8.6-1.9 9.8-.7 1.2-1.3 2.6-1.4 3.2 0 .5-.2 1.6-.2 2.2-.3 1.9-5.2 1.6-5.2-.2 0-1-1-1.5-2.7-1.5-1.6 0-4.1-.7-5.7-1.5-1.5-.8-3.8-1.5-5-1.5-1.2 0-3.2-.7-4.4-1.6-1.6-1.1-3.4-1.4-6.1-.9-2.2.3-4.1.3-4.4-.2-.3-.5.1-4.2.9-8.3 1.9-10.3 1.9-14.2-.3-13.8-1.7.3-3.4 6.3-4.8 17-.3 2.7-1 4.8-1.6 4.8-.5 0-.9.7-.9 1.5 0 1.4-3.1 2.1-6.9 1.5-.8-.1-2 .5-2.5 1.3-.6.7-2.8 2-4.9 2.6-2.1.7-4.1 1.9-4.4 2.7-.3.9-2.1 1.4-5.3 1.4-2.7 0-5 .5-5.2 1-.5 1.6-8.5 4-15.2 4.7-3.4.3-7.4 1.1-9 1.9-1.6.8-3.9 1.4-5.1 1.4-1.1 0-2.5.4-3 .9-.6.5-2.8 1.4-5 2.1-2.2.7-4.5 1.7-5.1 2.1-1.6 1.3-12.1 4.6-16.7 5.2-2 .3-4.4 1.3-5.3 2.1-.8.9-2.4 1.6-3.4 1.6-1.8 0-9.5 2.7-14.5 5-1.1.5-4 1.5-6.5 2.1-3.9 1.1-6.1 2.3-12.9 7.4-5.2 3.9-21.2 21.4-23.4 25.6-2.2 4.2-9.9 8.8-12 7-.8-.6-1.6-.8-2-.5-.9 1 .4 3.4 1.9 3.4 1.8 0 1.8 1-.1 3.7-2.1 3.1-13.7 4.9-21.2 3.4-3.1-.6-5.9-.9-6.3-.6-.4.3-2.1-.2-3.6-1-3.3-1.7-7-1.9-7.9-.5-.4.6-1.2.5-2.1-.4-1.6-1.6-4.4-1.1-4.4.8 0 .8-4.4 1.1-15 1.1-11.4 0-15-.3-15-1.2 0-.7-.4-1.3-.9-1.3s-1.1-1.1-1.5-2.3c-.3-1.3-2.8-4.5-5.5-7s-4.7-4.8-4.5-5c.3-.2-1.4-1.6-3.6-3.1-4.3-2.8-8.4-3.4-10.4-1.4-1.4 1.5-5.6 11.5-5.6 13.3 0 .7-.7 3.6-1.6 6.3-1.5 4.5-1.9 5-3.5 4.1-1.1-.5-4.4-.8-7.5-.5-3.1.2-6.8 0-8.2-.5-1.8-.7-2.9-.6-4.1.5-1.2 1.1-4.4 1.4-13.6 1.3-11.3-.2-12-.3-12-2.2 0-1.6-.6-1.9-2.5-1.7-8.3 1.1-19.1 2.2-22.7 2.4-2.4.2-4.3.6-4.3.9 0 1.1-5.5.7-6.2-.5-.5-.8-1.3-.8-2.8.1-2.7 1.8-13 1.6-17.3-.2-1.9-.8-4.8-1.7-6.5-2-1.7-.3-4.2-.9-5.5-1.4C70.9 110 59 98.8 59 97.2c0-1.1-3.9-8.3-5-9.2-2.3-2-4.7-7.1-4.7-10.4-.1-2.4-.7-4.5-1.7-5.2-1.7-1.2-2.2-3.4-.7-3.4 1.8 0 1.8-5.4.1-11.4-1-3.3-1.9-5.7-2-5.1-.1.5-.5.1-1-1-1.3-2.9-1.2-12.3.1-13.1.8-.4.7-.9-.2-1.4-.7-.5-1.3-2.9-1.4-5.7-.1-2.8-.6-4.7-1.2-4.6-.7.2-1-2-.8-6.2.2-3.6-.1-6.5-.6-6.5s-.9-1.5-.9-3.3c0-1.7-.3-4.9-.6-7L37.7 0H0v200zm257-86.6c0 .3-.4.8-1 1.1-.5.3-1 .1-1-.4 0-.6.5-1.1 1-1.1.6 0 1 .2 1 .4zm15.4 14.3c1.2 1.3 2.9 3.2 3.8 4.3.9 1 1.4 2.1 1.1 2.4-1.3 1.3-3.4.5-4.3-1.7-.5-1.2-.9-1.6-.9-.9-.1 1.9 3 8.5 4.4 9.4.6.3 2.4 2 4.1 3.6 1.7 1.6 3.7 3.1 4.5 3.4 1.1.4 1.2.8.1 2-1 1.2-1 2.1-.1 4.2.7 1.4 1.6 2.6 2.1 2.6.4 0 .8.7.8 1.5s.7 1.5 1.5 1.5 1.5.9 1.5 2c0 1.2.7 2 1.7 2 1.5 0 1.4.2-.3 1.5s-1.7 1.4-.1 1.5c.9 0 1.7.6 1.7 1.4 0 .7.7 1.9 1.5 2.6.8.7 1.5 2.3 1.5 3.7 0 1.3-.7 2.6-1.5 2.9-.8.4-1.5 1.2-1.5 2 0 1.7-.8 1.7-4.1 0-2-1-3.4-1.1-7.2-.1-4.3 1.1-4.7 1-4.7-.7 0-1-.4-1.8-1-1.8-.5 0-.7-.7-.4-1.5.4-.8 1.2-1.5 1.8-1.5.7 0 2.7-1.3 4.5-2.9 3.9-3.5 3.6-6.9-.8-7.7-2.8-.6-5.7-5.3-4.8-7.6.3-.7.6-.3.6 1 .1 2 2.5 4.1 3.6 3 .7-.7-.7-4.8-1.5-4.3s-5-7.6-5-9.8c0-.9-.9-2.1-1.9-2.7-1.3-.6-1.7-1.6-1.4-3.1.4-1.2 0-2.5-.7-2.9-.8-.5-1.5-1.6-1.6-2.6-.2-.9-.8-2-1.4-2.4-.8-.5-.9-1.6-.4-3.1.4-1.3.7-3.5.6-4.9-.2-2.3-.2-2.4.9-.6.7 1.1 2.2 3 3.3 4.3zM425 151c0 2.4-.6 2.5-2.5.6-1.5-1.5-1-2.6 1.2-2.6.7 0 1.3.9 1.3 2zm-6 .5c-.7.8-2.2 1.5-3.3 1.5-2 0-2 0-.1-1.5 2.7-2 5.1-2 3.4 0zm17 .6c0 .5-.4.9-1 .9-.5 0-1-.7-1-1.6 0-.8.5-1.2 1-.9.6.3 1 1 1 1.6zm-10.2 3.3c.3.3 1.1.1 1.9-.5 2.4-2 5.1 1.6 5.5 7.2.1 2.7 0 4.9-.5 4.9-1.3 0-2.9 5.3-3.4 11.5-.2 3.3-1.2 7.6-2.1 9.5-1.6 3.3-2 3.5-6.7 3.5h-5l.3 3.5c.1 1.9-.5 5.5-1.4 7.9-1.4 3.6-1.4 4.5-.3 5.2 1.1.6.9.9-.5 1.5-1 .4-2.7.2-3.7-.4-2.6-1.7-6.9-1.5-7.5.3-.8 2-6.4 2-6.4.1 0-1.3-2.5-2.7-5.5-3.2-3.5-.6-5.6-1.9-6.1-4-.3-1.3-1.3-2.4-2.1-2.4s-1.1-.5-.8-1c.3-.6-.1-1.7-1-2.6-1.8-1.8-1-3.2 2-3.7 3.1-.4 4.7-1.8 4.1-3.3-.3-.9.1-1.4 1.3-1.4 3 0 5.1-1.1 5.1-2.6 0-2.1 3.9-6.2 6.6-6.8 1.5-.4 2.4-1.4 2.4-2.5 0-1 .6-2.4 1.4-3 .8-.7 1.7-2.3 2-3.6.5-1.8 1.3-2.5 3.1-2.5 1.9 0 2.4-.5 2.3-2.8-.1-3.7 1.9-7.2 4.1-7.2 1 0 2.4-.7 3.1-1.5 1.2-1.5 6.3-1.5 7.8-.1zM377 181c0 .5-.2 1-.4 1-.3 0-.8-.5-1.1-1-.3-.6-.1-1 .4-1 .6 0 1.1.4 1.1 1zm-99 3.6c0 1.7-2.2 1.4-2.8-.4-.2-.7.3-1.2 1.2-1.2.9 0 1.6.7 1.6 1.6zm104-.6c0 .5-.7.7-1.5.4-.8-.4-1.5-.8-1.5-1 0-.2.7-.4 1.5-.4s1.5.4 1.5 1zm-2.5 15c.3.5.1 1-.4 1-.6 0-1.1-.5-1.1-1 0-.6.2-1 .4-1 .3 0 .8.4 1.1 1zM276 202.1c0 .5-.9.9-2.1.9-1.1 0-1.8.4-1.4.9.3.5.1 1.2-.5 1.6-.6.4-1-.4-1-1.9s.7-2.6 1.8-2.9c2-.4 3.2.1 3.2 1.4zm149 3c0 1.1-.4 1.7-1 1.4-.5-.3-1-1.3-1-2.1s.5-1.4 1-1.4c.6 0 1 .9 1 2.1zm-4.9 1.2c-.1 1.2-1.5.9-1.9-.4-.3-.6.1-1 .8-.8.6.3 1.1.8 1.1 1.2zM406 212c0 .5-.4 1-.9 1-.6 0-1.3-.5-1.6-1-.3-.6.1-1 .9-1 .9 0 1.6.4 1.6 1zm-17.7 7.6c-.7 1.8-1.1 1.8-3-.2-1.4-1.3-1.4-1.7-.2-2.4 1.7-1.1 4 .7 3.2 2.6zM377 231c0 .5-.7 1-1.5 1s-1.5-.5-1.5-1c0-.6.7-1 1.5-1s1.5.4 1.5 1zm-1.4 4.1c1 1.6-1.7 2.9-3.1 1.6-1-.9-1-1.4-.1-1.9 1.6-1.1 2.4-1 3.2.3zm-95.4 2.9c-.5 3.6-1.8 3.9-2.4.5-.6-2.6-.1-3.5 1.7-3.5.7 0 1 1.1.7 3zm83.6-.8c.2 1.2-.2 1.5-1.6 1.1-1-.2-1.9-1.1-1.9-1.9 0-2 3.1-1.3 3.5.8zM316 243c.6 1.1 1.5 2 2.1 2 .6 0 1.8.7 2.7 1.6 1.4 1.5 1.7 1.5 2.7 0 1-1.3 3.3-1.6 13-1.6 10.3 0 11.6.2 11.1 1.6-1.6 4.1-1.7 6.8-.6 9 1.2 2.1 2.1 2.4 6.6 2.4 2.8 0 6.5.7 8 1.5 1.6.8 3.7 1.5 4.6 1.5 1.5 0 1.6.4.8 2.5s-.7 2.5 1 2.5c1.1 0 2 .5 2 1.2 0 3 3.5 8.7 5.7 9.3 1.5.3 2.3 1.2 2.1 2.3-.2 1.4.6 1.8 5 2 4 .2 5.2 0 4.7-.9-.6-.8.1-1 2.4-.7 2.6.4 3.2.1 3.7-1.8.4-1.7 1.4-2.4 3.7-2.6 3.7-.4 4.4-3.1 1-3.6-1.3-.2-2.3-1-2.3-1.8 0-2 2-1.7 4.5.6 1.8 1.7 2.6 1.9 5.2.9 1.9-.6 3.6-2.2 4.3-3.9.7-1.6 2-3.2 2.9-3.5.9-.3 3.2-2.6 5.1-4.9 2.9-3.6 4-4.3 6.1-3.9 3.3.6 4.9-1.5 2.5-3.2-1.4-1.1-1.4-1.4-.2-1.8 2.1-.8 4.3 2 2.8 3.5-.7.7-1.2 2.5-1.2 4 0 2.1-.6 2.9-2.5 3.4s-2.4 1.1-2 2.5c.4 1.1-.1 2.1-1.4 2.8-1 .6-2.9 2.7-4.1 4.6-1.2 1.9-2.7 3.5-3.3 3.5-.7 0-1.8.9-2.5 2s-1.8 2-2.5 2-2.8 1.6-4.7 3.5c-1.9 1.9-3.9 3.5-4.5 3.5-1.3 0-5.4 4.1-5.3 5.3.1 1.9-4.3 5.7-6.6 5.7-1.3 0-2.6.5-2.8 1.1-.2.6-1.6 1.1-3.1 1.1s-2.7.5-2.7 1c0 .6-.6.5-1.4-.1-1.2-1-1.9-.8-3.5.8-1.2 1.2-2.8 2.1-3.6 2.1-.8 0-1.5.4-1.5.9s-.9 1.1-2 1.4c-1.3.3-1.8 1-1.4 2.1.5 1.2 2.1 1.6 6.9 1.6 5.9 0 6.3-.2 6.9-2.5.6-2.5 4.9-3.8 4.3-1.3-.1.8.8 1.2 2.6 1 1.5-.2 2.7.1 2.7.6 0 .6 2 0 4.6-1.4 2.5-1.3 6-2.4 7.8-2.4 2.9 0 3.5-.5 5.5-4.5 1.2-2.5 2.8-4.5 3.4-4.5 2.5 0 3.4 1.6 2.9 5.2-.5 4.1-1.7 4.9-2.7 1.8-.9-2.9-2.2-2.5-2.8 1-.4 1.8-1.3 3-2.2 3-.8 0-1.5.8-1.5 1.8 0 1.8-4.4 7.2-6 7.2-.5 0-1.5.6-2.2 1.2-2.6 2.4-6.3 4.1-9.5 4.4-1.8.1-3.3-.1-3.3-.5s-.9-.7-2-.8c-1.1-.1-2 .4-2 1.3 0 .8-.7 1.4-1.6 1.4-1.2 0-1.5.7-1.2 2.5.6 2.7-1.4 3.5-2.9 1.2-1.3-2-5-3.6-5.9-2.7-.8.8-3.7 1-12.6.9-2 0-2.9-.7-3.7-3.1-1.1-3-1.2-3-6.6-2.6-5.6.5-6.2 0-4.6-3.1 1.3-2.4-.2-4.5-2.8-3.8-1.2.3-2.1.1-2.1-.4s1.3-.9 2.9-.9c3.1 0 5-1.5 2.8-2.3-.6-.2-2-.1-3.1.2-5.1 1.9-25.3-3.2-29.9-7.4-1.4-1.3-3.7-2.7-5.2-3.1-1.5-.4-2.9-1.3-3.2-2-.3-.8-1.1-1.4-1.9-1.4-.8 0-1.4-.9-1.4-2 0-1.4.7-2 2.3-2.1 2-.2 2-.2.2-.6-1.7-.3-2-1-1.7-3.6.2-2.3-.6-4.6-2.7-8-1.7-2.6-3.4-4.7-3.9-4.7s-1.5-1.8-2.2-4c-.7-2.2-1.9-4.5-2.7-5.1-.7-.6-1.3-1.6-1.3-2.1s-.7-1.6-1.5-2.4c-2-2-1.9-5.9.2-9.5 1.9-3.2 3-3.6 4.7-1.5.7.9 4.5 1.6 11.3 2l10.1.7 1.6-3.2c.9-1.7 1.3-3.5 1-4-.3-.5.2-.9 1-.9s2 .9 2.6 2zm31.5 0c.3.5.1 1-.4 1-.6 0-1.1-.5-1.1-1 0-.6.2-1 .4-1 .3 0 .8.4 1.1 1zm68.7 10.6c-1.2.8-2.8 1.3-3.5 1.1-.7-.3-.1-.9 1.3-1.5 3.7-1.6 4.7-1.4 2.2.4zM365 256c0 .5-.4 1-.9 1-.6 0-1.3-.5-1.6-1-.3-.6.1-1 .9-1 .9 0 1.6.4 1.6 1zm37 6c0 .5-.7 1-1.6 1-.8 0-1.2-.5-.9-1 .3-.6 1-1 1.6-1 .5 0 .9.4.9 1zm-109 20c0 .5-.4 1-1 1-.5 0-1-.5-1-1 0-.6.5-1 1-1 .6 0 1 .4 1 1zm2.5 4c.3.5.1 1-.4 1-.6 0-1.1-.5-1.1-1 0-.6.2-1 .4-1 .3 0 .8.4 1.1 1zm142.9 3.2c-.4 2.4-.9 4.5-1.1 4.8-.8.9-2.3-2.6-2.3-5.8 0-2.5.4-3.2 2-3.2 1.8 0 2 .4 1.4 4.2zm-15.9 2.8c.3.5.1 1-.4 1-.6 0-1.1-.5-1.1-1 0-.6.2-1 .4-1 .3 0 .8.4 1.1 1zm11.5 2.5c0 .8.4 1.5 1 1.5.5 0 .7.6.4 1.4-.3.8-1.3 1.2-2.5.9-2-.6-2.3-1.2-1.3-3.7.8-2 2.4-2.1 2.4-.1zm-2.5 7.4c-1.8 1.9-3.5.5-3.5-3v-3l2.4 2.3c2 1.9 2.2 2.5 1.1 3.7zm-4.9 3.1c.8 0 1.4.7 1.4 1.5s-.6 1.5-1.4 1.5c-2.4 0-2.8 4.3-.6 5.9 2.7 1.9 2.5 2.9-.5 2.3-1.7-.3-2.5 0-2.5 1 0 .8-1.5 2.2-3.4 3-2.6 1.3-3.5 2.4-3.8 4.9-.7 4.3.1 7.6 1.3 5.7.6-.9.9-.4.9 1.5 0 2.4-.4 2.8-2.2 2.5-1.5-.2-2.4-1.1-2.6-2.6-.4-2.6-.1-2.6-4-.6-3.9 1.9-4.1 4-.7 4.8 1.4.4 2.3 1.1 2 1.6-.3.6-.2 1 .2 1 .5 0 .9.9.9 2 0 1.5-.7 2-2.8 2-1.9 0-2.8.5-2.8 1.6 0 .8-.4 1.3-.9 1-.5-.4-.7.3-.4 1.4.4 1.5 0 2-1.3 2-1.1.1-3.7.9-5.9 2s-5.3 1.9-6.8 2c-1.6 0-2.6.4-2.3.9.3.5-1.4 1.5-3.9 2.2-2.5.7-4.5 1.7-4.5 2.1 0 .4-4.4.8-9.9.8-7.5 0-10.1-.4-11.1-1.5-.7-.8-2-1.5-3-1.5s-2.5-1.1-3.4-2.5c-.9-1.4-2.3-2.5-3-2.5-.8 0-1.6-.7-1.9-1.4-.3-.8-2.3-2-4.4-2.5-2.9-.8-4.1-1.8-5-4-.8-2.3-1.5-2.9-3.2-2.4-1.6.4-3-.5-5.6-3.3-1.9-2.2-3.5-4.3-3.5-4.8 0-1.2-6.9-7.6-8.1-7.6-.5 0-.9-.5-.9-1.1 0-.6-1.6-3-3.6-5.4-2-2.4-3.3-4.9-2.9-5.5.3-.5.2-1-.3-1s-1.4-1.1-2-2.5c-1.6-3.4-1.5-4 .3-2.5.8.7 1.5 1.8 1.5 2.4 0 2 5.8 7.6 7.9 7.6 1.2 0 2.1.4 2.1 1 0 .5 1.8 1 4.1 1 2.2 0 5.9.9 8.2 1.9 2.3 1.1 5.8 1.8 7.6 1.7 2.9-.2 3.6.2 4.5 2.6.6 1.5 1.6 2.8 2.3 2.8.7 0 1.3.9 1.3 2s.5 2 1 2c.6 0 1-.8 1-1.8.1-1.6.1-1.6 1.1 0 .6 1.1 2.2 1.8 3.9 1.8 1.5 0 3.1.6 3.4 1.2.5 1 .7 1 1.2 0 .8-1.7 4.4-1.5 4.4.3 0 2 2.5 1.9 4.6-.2 1.3-1.3 1.9-1.4 2.2-.5.4 1.4 3.2 1.6 3.2.2 0-1.5 2-1.2 3.8.7 1.6 1.6 1.7 1.5 2-1.5.3-3.1 2.4-4.3 3.7-2.2 1 1.6 6.2 1.2 6.9-.5.3-.8 1.7-1.5 3.1-1.5 1.4 0 2.8-.7 3.1-1.5.4-.8 1.4-1.5 2.4-1.5s2.3-.7 3-1.5c.6-.8 2.1-1.7 3.2-2.1 3.6-1.1 8.5-4.9 8-6.3-.2-.7.5-1.5 1.7-1.8 1.2-.3 2.1-1.1 2.1-1.9 0-.7.9-1.8 2-2.4 1.1-.6 2-1.9 2-3 0-2.4 3.3-4.6 3.8-2.4.2.8 1 1.4 1.8 1.4zm-2.3 21.1c-.6.6-1.7.8-2.4.3-.9-.5-.8-.9.7-1.4 2.3-.9 3.1-.3 1.7 1.1zm-120 23c.2.8.6 2 1 2.6.5.7.4 1.3 0 1.3-1.7 0-3.3-2.4-3.3-4.9 0-1.8.3-2.2 1.1-1.4.6.6 1.1 1.7 1.2 2.4zm10.2-1.1c-.4.6-.1 1.7.5 2.6.8.8 1 2.8.7 4.8-.4 2.8-.2 3.5 1.4 3.9 2.6.7 2.4 2.7-.3 2.7-5.2 0-9-9.7-5.2-13.4 1.7-1.8 3.9-2.2 2.9-.6zm26.1 5.1c1 1.7-2.3 4.6-3.8 3.1-.8-.8-.8-1.5.2-2.7 1.5-1.8 2.6-1.9 3.6-.4zm-5.1 3.8c1.2 2-7 4.3-8.8 2.4-.4-.3-.2-1.2.4-2 1.3-1.5 7.5-1.8 8.4-.4zm64.8.4c.2.6-.6 2-1.9 3-2.6 1.9-3.1.9-1.2-2.3 1.5-2.3 2.4-2.5 3.1-.7zm-1.3 44.2c0 .8-.9 1.5-2 1.5s-2-.7-2-1.5.9-1.5 2-1.5 2 .7 2 1.5zm12 4.5c0 1.5-1.4 1.8-3.9.9-1.9-.8-2.1-1.2-1.1-2.4.9-1.1 1.7-1.2 3.1-.4 1 .5 1.9 1.4 1.9 1.9zm-177.5 6.1c.4.6.5 1.2.3 1.4-.7.7-4.8-.7-4.8-1.6 0-1.3 3.7-1.1 4.5.2zm32.5 2.6c0 1-.6 1-2.5.1-1.4-.6-2.5-1.7-2.5-2.4 0-.9.6-1 2.5-.1 1.4.7 2.5 1.8 2.5 2.4zm48.8 13.1c.3 2.6 0 3.2-1.6 3.2-1.5 0-1.8-.7-1.8-3.5.1-4.7 3-4.4 3.4.3zm-48.8-1.7c0 .6-.9 1.3-2 1.6-1.1.3-2 1-2 1.6 0 2.6-7.1 5-8.5 2.8-.3-.6.7-.9 2.2-.8 2 .1 2.8-.3 3.1-1.8.7-3.4 7.2-6.5 7.2-3.4zm8.8 2c.2 1-.9 1.4-3.8 1.6-2.2 0-4-.4-4-.9 0-.6.6-.8 1.4-.5.8.3 2-.1 2.7-.9 1.4-1.7 3.3-1.4 3.7.7zm-1.1 6.6c-.3.3-1.1.2-1.7-.2-.8-.5-.7-1.1.2-2.2 1.2-1.5 1.3-1.4 1.6.1.2 1 .1 2-.1 2.3zM392 432c0 .5-.7 1-1.5 1s-1.5-.5-1.5-1c0-.6.7-1 1.5-1s1.5.4 1.5 1zm-126.7 7.9c-.2.6.6 1.1 1.7 1.1 3.6 0 2.2 2.6-1.5 2.7-3 .1-3.5-.2-3.5-2.1 0-1.3.3-2.6.7-3 1-.9 2.8-.1 2.6 1.3zm80.4 1.3c-.3.8-.6.5-.6-.6-.1-1.1.2-1.7.5-1.3.3.3.4 1.2.1 1.9zm-75.1 4.3c-2.1 1.6-3.2 1.3-2.1-.4.3-.6 1.4-1.1 2.3-1.1 1.5.1 1.5.2-.2 1.5zm74.4.6c0 .5-.7.9-1.5.9s-1.5-.7-1.5-1.5c0-.9.6-1.2 1.5-.9.8.4 1.5 1 1.5 1.5z"/><path d="M422.5 185c-.3.5-.1 1 .4 1 .6 0 1.1-.5 1.1-1 0-.6-.2-1-.4-1-.3 0-.8.4-1.1 1zM313.5 264c-2.2 4.2-1.9 6.8.8 7.2 2 .3 2.2.7 1.9 6.3-.5 9.6-.1 10.2 6.5 10.7 3.1.3 5.9 1 6.1 1.6.6 2 3 1.3 3.8-1 .6-2.1-1.5-4.9-4.9-6.1-.9-.4-.9-.7.1-1.8 2.3-2.5 1.4-4.8-2.2-5.4-4.9-1-8.4-5.1-8.7-10.3-.3-4.9-1.3-5.3-3.4-1.2zM357.1 305.9c1.6 2.4 3.9 2.8 3.9.6 0-.8-.4-1.5-.9-1.5s-1.7-.3-2.6-.6c-1.5-.6-1.5-.4-.4 1.5zM344.5 305.9c-.3.5 0 2.2.7 3.7l1.3 2.7.6-2.4c.9-3.8-.9-6.6-2.6-4zM396 340.5c0 .8.4 1.5.8 1.5.5 0 .9-.7.9-1.5s-.4-1.5-.9-1.5c-.4 0-.8.7-.8 1.5zM387 341.2c0 2.2 1.7 4.1 2.9 3.4 1.7-1.1 1.3-2.4-.9-3.6-1.5-.8-2-.8-2 .2zM511.2 2c0 1.4.2 1.9.5 1.2.2-.6.2-1.8 0-2.5-.3-.6-.5-.1-.5 1.3zM480 16c0 .5.5 1 1.1 1 .5 0 .7-.5.4-1-.3-.6-.8-1-1.1-1-.2 0-.4.4-.4 1zM44.5 49c.3.5.8 1 1.1 1 .2 0 .4-.5.4-1 0-.6-.5-1-1.1-1-.5 0-.7.4-.4 1zM54.1 50c-1.6.9.9 5.5 2.9 5.5 2.4 0 2.5-5.1.2-5.7-1.1-.3-2.5-.2-3.1.2zM73.1 101.1c-2.9 3.1-2.7 4.7.4 4.1 1.4-.2 4.8.3 7.6 1.3 6 1.9 9.9 1.4 9.9-1.4 0-2.7-3.7-4.7-10.2-5.5-5-.6-5.8-.5-7.7 1.5zM31.4 427.7c-1 1.5-3.1 4.1-4.7 5.7-1.6 1.7-3.7 4.7-4.8 6.8-1 2.1-3.3 4.7-4.9 6-1.7 1.2-3 2.8-3 3.5 0 .7-.5 1.3-1.1 1.3-.6 0-3.8 1.2-7 2.7L0 456.4v18.3c0 20.4-.3 19.6 7.1 19.1l4.4-.3-5-1.6-5-1.6 3.5-2.2c1.9-1.1 4-2.3 4.5-2.5 1.6-.6-1-4.1-2.9-4-1 .1-1.6-.6-1.6-1.7 0-1 .6-1.9 1.4-1.9 1.8 0 4.6-4.3 4.6-7 0-1.2-.5-3-1.1-4.1-.6-1.3-.7-2.5-.1-3.2.5-.7 1.2-2.4 1.6-3.8.3-1.5 3.4-5.2 7.1-8.5 3.6-3.2 6.5-6.6 6.5-7.6 0-.9.5-2 1-2.3.6-.3 1-1.4 1-2.3 0-1 2-3.7 4.5-6.1 4.4-4.2 5.4-7 2.8-7.8-.6-.2-2 .8-2.9 2.4zM42.8 478.2c-.6 3.7.1 5.2 3.8 7.8 1.9 1.4 4.2 3.1 5 3.9.8.7 2.3 1.1 3.4.8 1.2-.3 1.7 0 1.4.7-1 2.5 17.2 6 19.8 3.9.7-.6 2.8-1.4 4.6-1.8 2.5-.5 3.2-1.2 3.2-3.1 0-2.9-.8-3-6-.3-8.1 4.2-24.1.3-28.8-7-.9-1.4-1.9-2.8-2.2-3.1-.4-.3-.9-1.3-1.3-2.3-.9-2.4-2.4-2.1-2.9.5z"/></svg>