<?xml version="1.0" standalone="no"?>
<!DOCTYPE svg PUBLIC "-//W3C//DTD SVG 20010904//EN"
 "http://www.w3.org/TR/2001/REC-SVG-20010904/DTD/svg10.dtd">
<svg version="1.0" xmlns="http://www.w3.org/2000/svg"
 width="400.000000pt" height="400.000000pt" viewBox="0 0 400.000000 400.000000"
 preserveAspectRatio="xMidYMid meet">
<metadata>
Created by potrace 1.11, written by Peter Selinger 2001-2013
</metadata>
<g transform="translate(0.000000,400.000000) scale(0.100000,-0.100000)"
fill="#000000" stroke="none">
<path d="M1675 2501 c-20 -8 -114 -104 -187 -190 -21 -25 -40 -42 -43 -40 -2
3 -27 53 -54 111 -54 113 -66 124 -123 107 -40 -11 -68 -37 -68 -62 0 -18 81
-187 125 -263 l19 -31 -50 -69 c-102 -143 -163 -238 -158 -246 7 -11 77 -10
107 1 15 6 53 50 93 110 38 55 71 100 74 100 3 0 36 -40 74 -90 42 -54 78 -92
93 -95 34 -9 96 17 110 46 11 21 7 29 -33 79 -54 67 -144 192 -144 200 0 3 12
20 26 36 14 17 42 50 62 74 38 45 58 67 121 136 44 47 53 69 38 84 -13 13 -53
14 -82 2z"/>
<path d="M300 2369 c-296 -187 -275 -171 -275 -212 -1 -20 2 -37 5 -37 4 0 26
-13 51 -28 129 -83 320 -202 324 -202 12 0 56 83 47 89 -6 3 -74 44 -151 91
-77 47 -141 88 -141 91 0 6 167 112 258 164 44 25 43 25 20 66 -12 21 -26 39
-32 38 -6 0 -54 -28 -106 -60z"/>
<path d="M3563 2391 l-23 -39 131 -81 c72 -45 133 -81 136 -81 2 0 12 -7 20
-16 14 -13 14 -17 2 -25 -8 -5 -75 -46 -150 -91 l-137 -83 19 -37 c10 -20 23
-39 28 -42 7 -5 73 33 241 139 147 92 147 92 146 124 -1 17 -6 35 -11 40 -16
15 -363 231 -372 231 -4 0 -18 -18 -30 -39z"/>
<path d="M817 2376 c-39 -15 -55 -25 -99 -65 -21 -18 -28 -21 -28 -10 0 23
-40 56 -82 67 -43 12 -52 5 -63 -45 -5 -25 -3 -33 7 -33 8 0 24 -10 35 -22 20
-22 21 -32 21 -394 -1 -204 2 -375 5 -380 4 -7 63 -10 97 -5 3 1 5 67 5 149
-1 81 0 150 2 154 2 3 29 -7 61 -24 183 -94 373 40 389 272 10 138 -45 256
-145 313 -63 35 -147 45 -205 23z m107 -91 c35 -7 84 -51 109 -99 17 -32 21
-59 22 -127 0 -78 -3 -90 -30 -135 -41 -65 -91 -93 -161 -90 -51 3 -107 28
-135 63 -17 20 -20 312 -4 328 52 49 112 77 153 69 12 -2 33 -6 46 -9z"/>
<path d="M1900 2373 c-88 -30 -126 -74 -134 -152 -8 -80 43 -140 155 -182 130
-50 160 -70 172 -118 21 -85 -139 -122 -260 -61 l-54 27 -19 -38 c-11 -21 -20
-42 -20 -47 0 -14 91 -52 145 -60 118 -18 211 4 272 64 26 27 43 53 43 67 0
40 12 38 33 -4 24 -48 95 -105 151 -120 73 -20 207 -11 289 20 24 9 25 12 15
48 -14 53 -19 56 -63 37 -21 -8 -70 -17 -108 -19 -69 -4 -127 14 -163 49 -17
18 -41 67 -48 103 l-7 31 203 0 c112 0 211 1 221 1 16 1 18 10 16 69 -4 139
-52 227 -147 273 -65 32 -179 33 -238 1 -100 -52 -155 -147 -162 -279 l-4 -82
-25 29 c-24 29 -105 72 -195 104 -96 35 -122 80 -73 129 42 41 130 46 227 11
23 -8 42 -13 43 -12 4 6 25 71 25 79 0 4 -21 15 -47 24 -66 24 -186 28 -243 8z
m655 -99 c40 -19 74 -74 77 -126 l3 -42 -163 -1 c-90 0 -166 3 -169 8 -10 16
19 95 46 127 46 55 132 69 206 34z"/>
<path d="M2759 2360 c-6 -101 1 -439 11 -478 13 -57 56 -107 110 -130 78 -33
198 -9 272 53 l31 26 11 -22 c16 -31 56 -58 93 -63 28 -3 33 1 42 27 15 41 14
57 -3 57 -8 0 -24 12 -35 26 -19 24 -20 40 -20 257 0 128 0 239 0 247 -1 14
-22 17 -96 11 -7 -1 -10 -80 -9 -228 1 -253 2 -249 -67 -284 -55 -28 -129 -34
-167 -15 -61 31 -66 56 -66 304 -1 190 -3 222 -16 223 -72 6 -90 4 -91 -11z"/>
</g>
</svg>
