<?xml version="1.0" standalone="no"?>
<!DOCTYPE svg PUBLIC "-//W3C//DTD SVG 20010904//EN"
 "http://www.w3.org/TR/2001/REC-SVG-20010904/DTD/svg10.dtd">
<svg version="1.0" xmlns="http://www.w3.org/2000/svg"
 width="550.000000pt" height="550.000000pt" viewBox="0 0 550.000000 550.000000"
 preserveAspectRatio="xMidYMid meet">
<metadata>
Created by potrace 1.14, written by Peter Selinger 2001-2017
</metadata>
<g transform="translate(0.000000,550.000000) scale(0.100000,-0.100000)"
fill="#000000" stroke="none">
<path d="M0 2750 l0 -2750 2750 0 2750 0 0 2750 0 2750 -2750 0 -2750 0 0
-2750z m1543 1449 c23 -12 58 -33 78 -46 l37 -24 -39 -96 c-90 -222 -166 -491
-201 -715 -29 -191 -32 -635 -5 -823 33 -222 109 -503 200 -733 l45 -112 -46
-27 c-26 -14 -61 -34 -78 -45 -17 -10 -34 -18 -37 -18 -11 0 -136 247 -195
385 -149 351 -202 599 -202 952 0 300 41 532 142 803 66 176 233 520 254 520
2 0 24 -10 47 -21z m2534 -111 c212 -394 305 -717 320 -1118 13 -356 -53 -680
-214 -1049 -43 -100 -164 -344 -178 -359 -2 -2 -39 17 -84 43 l-80 46 21 52
c38 93 137 390 163 492 104 401 111 900 20 1310 -33 148 -96 353 -150 489 -24
61 -45 117 -47 125 -2 9 26 31 72 58 41 23 77 43 80 43 3 0 38 -60 77 -132z
m-1094 -573 c137 -29 284 -121 372 -233 101 -127 157 -277 175 -458 25 -270
-50 -525 -211 -709 -227 -260 -577 -297 -864 -91 l-50 36 -3 -395 -2 -395
-140 0 -140 0 0 940 c0 777 -2 946 -14 974 -18 42 -58 74 -113 87 -48 13 -49
15 -29 85 8 27 20 69 26 93 l11 44 67 -5 c38 -3 89 -15 117 -27 60 -26 127
-89 150 -142 l18 -38 31 38 c73 88 201 166 322 195 77 19 192 19 277 1z"/>
<path d="M2671 3275 c-75 -21 -156 -69 -218 -130 l-53 -51 0 -386 0 -386 55
-50 c104 -96 224 -138 370 -130 259 14 425 240 425 577 0 247 -105 442 -284
527 -64 30 -89 37 -158 40 -55 3 -101 -1 -137 -11z"/>
</g>
</svg>
